:FULLY-SPECIFIED
:FORCE-ALL-JOINTS-BE-3DOF
:DEGREES
951
root 1.15561 15.2773 32.7329 7.09739 -3.18724 364.939
lfemur 7.07096 1.108 3.81118
ltibia -0.11691 0 0
lfoot -29.7228 -12.7813 0
ltoes -34.0924 0 0
rfemur -31.8381 -16.5005 -7.58178
rtibia 49.1819 0 0
rfoot -21.5635 4.77162 0
rtoes -42.4861 0 0
lowerback -2.2764 -0.377781 0.860373
upperback -1.54356 -0.534999 -6.98788
thorax -0.392363 -0.312649 -7.79112
lowerneck -6.64982 0.544739 4.49257
upperneck 0.93441 0.273944 3.1976
head 1.39922 0.226948 0.248143
lclavicle -1.29817e-14 -4.00411e-14 0
lhumerus -59.6021 -44.2643 112.921
lradius 55.4807 0 0
lwrist 25.663 0 0
lhand 40.2539 24.45 0
lfingers 7.12502 0 0
lthumb 62.6107 35.2027 0
rclavicle -1.29817e-14 -4.00411e-14 0
rhumerus 7.43058 -41.8433 2.14791
rradius 23.2637 0 0
rwrist -17.3271 0 0
rhand -44.5752 -53.0971 0
rfingers 7.12502 0 0
rthumb -17.3478 -803.139 0
952
root 1.14859 15.2682 32.7256 7.1205 -3.19236 364.947
lfemur 7.07911 1.12181 3.80124
ltibia -0.140427 0 0
lfoot -29.7854 -12.692 0
ltoes -34.2338 0 0
rfemur -31.8574 -16.5482 -7.58486
rtibia 49.1931 0 0
rfoot -21.6162 4.80291 0
rtoes -42.4792 0 0
lowerback -2.2806 -0.377334 0.872338
upperback -1.55091 -0.535093 -6.99715
thorax -0.39783 -0.313047 -7.80802
lowerneck -6.64843 0.54692 4.49283
upperneck 0.925355 0.277721 3.18818
head 1.39536 0.228419 0.245172
lclavicle -1.30987e-14 -4.06193e-14 0
lhumerus -59.6321 -44.276 112.923
lradius 55.4786 0 0
lwrist 25.6915 0 0
lhand 40.2699 24.4404 0
lfingers 7.12502 0 0
lthumb 62.6247 35.1804 0
rclavicle -1.30987e-14 -4.06193e-14 0
rhumerus 7.64902 -42.2596 2.39214
rradius 22.9506 0 0
rwrist -17.4156 0 0
rhand -44.8937 -53.2976 0
rfingers 7.12502 0 0
rthumb -17.6533 -803.363 0
953
root 1.14158 15.259 32.7182 7.13712 -3.18192 364.954
lfemur 7.06849 1.11897 3.78952
ltibia -0.145557 0 0
lfoot -29.794 -12.6832 0
ltoes -34.2614 0 0
rfemur -31.8526 -16.5626 -7.59537
rtibia 49.1836 0 0
rfoot -21.6173 4.8058 0
rtoes -42.4807 0 0
lowerback -2.28693 -0.377241 0.875828
upperback -1.55791 -0.535275 -7.00678
thorax -0.401685 -0.3134 -7.82042
lowerneck -6.64763 0.542732 4.48332
upperneck 0.922628 0.273238 3.18526
head 1.39404 0.226002 0.245667
lclavicle -1.31593e-14 -4.10527e-14 0
lhumerus -59.6471 -44.273 112.91
lradius 55.4816 0 0
lwrist 25.7016 0 0
lhand 40.2943 24.4386 0
lfingers 7.12502 0 0
lthumb 62.6453 35.1552 0
rclavicle -1.31593e-14 -4.10527e-14 0
rhumerus 7.7148 -42.4575 2.45233
rradius 22.8592 0 0
rwrist -17.475 0 0
rhand -45.0461 -53.3944 0
rfingers 7.12502 0 0
rthumb -17.7997 -803.464 0
954
root 1.13456 15.2499 32.7109 7.14633 -3.16351 364.96
lfemur 7.04616 1.10596 3.77921
ltibia -0.135358 0 0
lfoot -29.7591 -12.7396 0
ltoes -34.1939 0 0
rfemur -31.8331 -16.5497 -7.60865
rtibia 49.1624 0 0
rfoot -21.579 4.78914 0
rtoes -42.4863 0 0
lowerback -2.29368 -0.377701 0.872116
upperback -1.56364 -0.535857 -7.01493
thorax -0.403945 -0.313851 -7.82708
lowerneck -6.64663 0.534758 4.46837
upperneck 0.923653 0.263779 3.18809
head 1.39427 0.221258 0.248761
lclavicle -1.31017e-14 -4.12048e-14 0
lhumerus -59.6473 -44.2573 112.888
lradius 55.4875 0 0
lwrist 25.6955 0 0
lhand 40.3201 24.4442 0
lfingers 7.12502 0 0
lthumb 62.6669 35.1341 0
rclavicle -1.31017e-14 -4.12048e-14 0
rhumerus 7.64912 -42.4439 2.35906
rradius 22.9601 0 0
rwrist -17.5009 0 0
rhand -45.0364 -53.393 0
rfingers 7.12502 0 0
rthumb -17.7909 -803.453 0
955
root 1.12754 15.2407 32.7035 7.14723 -3.14471 364.962
lfemur 7.01918 1.08922 3.77351
ltibia -0.112892 0 0
lfoot -29.6908 -12.8456 0
ltoes -34.0503 0 0
rfemur -31.8081 -16.5152 -7.62002
rtibia 49.1383 0 0
rfoot -21.5137 4.76176 0
rtoes -42.4919 0 0
lowerback -2.29913 -0.378912 0.862474
upperback -1.56715 -0.537155 -7.01977
thorax -0.404628 -0.314541 -7.82676
lowerneck -6.64467 0.525579 4.45233
upperneck 0.925856 0.252632 3.19595
head 1.39506 0.215749 0.253584
lclavicle -1.28642e-14 -4.09392e-14 0
lhumerus -59.6329 -44.2308 112.86
lradius 55.4939 0 0
lwrist 25.6748 0 0
lhand 40.3405 24.4568 0
lfingers 7.12502 0 0
lthumb 62.6836 35.1238 0
rclavicle -1.28642e-14 -4.09392e-14 0
rhumerus 7.47317 -42.2259 2.14292
rradius 23.2242 0 0
rwrist -17.4888 0 0
rhand -44.8687 -53.2988 0
rfingers 7.12502 0 0
rthumb -17.6305 -803.337 0
956
root 1.12052 15.2316 32.6962 7.13888 -3.13311 364.96
lfemur 6.9946 1.0752 3.7756
ltibia -0.0812156 0 0
lfoot -29.5994 -12.9857 0
ltoes -33.8495 0 0
rfemur -31.787 -16.4651 -7.62479
rtibia 49.1202 0 0
rfoot -21.4337 4.73254 0
rtoes -42.4934 0 0
lowerback -2.30158 -0.381076 0.848176
upperback -1.5675 -0.539483 -7.01946
thorax -0.40375 -0.315615 -7.8182
lowerneck -6.64097 0.517776 4.43954
upperneck 0.926662 0.243082 3.20808
head 1.39545 0.211039 0.259271
lclavicle -1.23847e-14 -4.01192e-14 0
lhumerus -59.604 -44.1957 112.835
lradius 55.4986 0 0
lwrist 25.6415 0 0
lhand 40.3483 24.4759 0
lfingers 7.12502 0 0
lthumb 62.6896 35.1314 0
rclavicle -1.23847e-14 -4.01192e-14 0
rhumerus 7.20814 -41.8105 1.83451
rradius 23.6222 0 0
rwrist -17.4342 0 0
rhand -44.547 -53.1171 0
rfingers 7.12502 0 0
rthumb -17.3225 -803.124 0
957
root 1.11351 15.2224 32.6888 7.12036 -3.13629 364.951
lfemur 6.9795 1.07038 3.78868
ltibia -0.0433902 0 0
lfoot -29.4954 -13.1446 0
ltoes -33.6103 0 0
rfemur -31.7792 -16.4051 -7.6183
rtibia 49.1169 0 0
rfoot -21.3515 4.71032 0
rtoes -42.4865 0 0
lowerback -2.29933 -0.38439 0.830495
upperback -1.56375 -0.543154 -7.01217
thorax -0.401327 -0.317214 -7.80016
lowerneck -6.63475 0.51393 4.43437
upperneck 0.923497 0.238414 3.22376
head 1.39443 0.20869 0.264951
lclavicle -1.16016e-14 -3.86084e-14 0
lhumerus -59.5607 -44.1538 112.816
lradius 55.4991 0 0
lwrist 25.5976 0 0
lhand 40.3367 24.5011 0
lfingers 7.12502 0 0
lthumb 62.6791 35.1636 0
rclavicle -1.16016e-14 -3.86084e-14 0
rhumerus 6.87522 -41.2048 1.46442
rradius 24.1249 0 0
rwrist -17.3326 0 0
rhand -44.0756 -52.8534 0
rfingers 7.12502 0 0
rthumb -16.8706 -802.823 0
958
root 1.10649 15.2133 32.6815 7.09076 -3.16182 364.936
lfemur 6.98092 1.08119 3.81594
ltibia -0.00247466 0 0
lfoot -29.3889 -13.3068 0
ltoes -33.3516 0 0
rfemur -31.794 -16.3412 -7.59587
rtibia 49.1373 0 0
rfoot -21.2793 4.70395 0
rtoes -42.467 0 0
lowerback -2.29066 -0.389054 0.810706
upperback -1.55496 -0.548484 -6.99607
thorax -0.397375 -0.319482 -7.77138
lowerneck -6.62523 0.516623 4.44113
upperneck 0.913786 0.241915 3.24225
head 1.39103 0.210263 0.269758
lclavicle -1.04529e-14 -3.62703e-14 0
lhumerus -59.5033 -44.1072 112.809
lradius 55.4932 0 0
lwrist 25.5449 0 0
lhand 40.2986 24.532 0
lfingers 7.12502 0 0
lthumb 62.6463 35.2274 0
rclavicle -1.04529e-14 -3.62703e-14 0
rhumerus 6.49562 -40.4157 1.06323
rradius 24.7031 0 0
rwrist -17.1796 0 0
rhand -43.4585 -52.5131 0
rfingers 7.12502 0 0
rthumb -16.2786 -802.443 0
959
root 1.09947 15.2041 32.6741 7.04914 -3.21731 364.912
lfemur 7.00592 1.11411 3.86057
ltibia 0.0384714 0 0
lfoot -29.2903 -13.4568 0
ltoes -33.0922 0 0
rfemur -31.8407 -16.2791 -7.55281
rtibia 49.1903 0 0
rfoot -21.2295 4.72229 0
rtoes -42.4307 0 0
lowerback -2.27387 -0.395268 0.79008
upperback -1.54019 -0.555786 -6.96932
thorax -0.391912 -0.32256 -7.73064
lowerneck -6.61165 0.528437 4.4642
upperneck 0.894954 0.256869 3.26281
head 1.38426 0.217322 0.272825
lclavicle -8.87682e-15 -3.29684e-14 0
lhumerus -59.432 -44.0577 112.82
lradius 55.4786 0 0
lwrist 25.4853 0 0
lhand 40.2272 24.5681 0
lfingers 7.12502 0 0
lthumb 62.5855 35.3297 0
rclavicle -8.87682e-15 -3.29684e-14 0
rhumerus 6.09053 -39.4503 0.661532
rradius 25.3275 0 0
rwrist -16.9708 0 0
rhand -42.6999 -52.1015 0
rfingers 7.12502 0 0
rthumb -15.5504 -801.991 0
960
root 1.09245 15.195 32.6668 6.9946 -3.31033 364.878
lfemur 7.06157 1.17558 3.92576
ltibia 0.0763885 0 0
lfoot -29.2098 -13.5791 0
ltoes -32.8511 0 0
rfemur -31.9286 -16.2247 -7.48446
rtibia 49.2847 0 0
rfoot -21.2144 4.77419 0
rtoes -42.3735 0 0
lowerback -2.24724 -0.40323 0.769892
upperback -1.5185 -0.565375 -6.93009
thorax -0.384953 -0.326591 -7.67666
lowerneck -6.59322 0.551952 4.50791
upperneck 0.864428 0.286563 3.2847
head 1.37314 0.231428 0.273282
lclavicle -6.81155e-15 -2.85661e-14 0
lhumerus -59.3468 -44.0076 112.855
lradius 55.4528 0 0
lwrist 25.4207 0 0
lhand 40.1153 24.609 0
lfingers 7.12502 0 0
lthumb 62.4907 35.4773 0
rclavicle -6.81155e-15 -2.85661e-14 0
rhumerus 5.68113 -38.3155 0.289924
rradius 25.969 0 0
rwrist -16.7016 0 0
rhand -41.8038 -51.6241 0
rfingers 7.12502 0 0
rthumb -14.6896 -801.476 0
961
root 1.08544 15.1858 32.6594 6.92622 -3.44847 364.833
lfemur 7.15492 1.27206 4.01471
ltibia 0.108217 0 0
lfoot -29.1578 -13.6584 0
ltoes -32.6471 0 0
rfemur -32.0672 -16.1839 -7.38613
rtibia 49.4295 0 0
rfoot -21.2464 4.8685 0
rtoes -42.2912 0 0
lowerback -2.20908 -0.413141 0.751416
upperback -1.48894 -0.577564 -6.87655
thorax -0.376516 -0.331719 -7.60822
lowerneck -6.56917 0.589751 4.57661
upperneck 0.819631 0.334283 3.30718
head 1.35668 0.254145 0.270262
lclavicle -4.19522e-15 -2.29268e-14 0
lhumerus -59.248 -43.9586 112.919
lradius 55.4137 0 0
lwrist 25.353 0 0
lhand 39.956 24.6544 0
lfingers 7.12502 0 0
lthumb 62.3562 35.6771 0
rclavicle -4.19522e-15 -2.29268e-14 0
rhumerus 5.28863 -37.0185 -0.0210064
rradius 26.5982 0 0
rwrist -16.3676 0 0
rhand -40.7743 -51.0862 0
rfingers 7.12502 0 0
rthumb -13.7002 -800.906 0
